<?xml version="1.0" standalone="no"?>
<!DOCTYPE svg PUBLIC "-//W3C//DTD SVG 20010904//EN"
 "http://www.w3.org/TR/2001/REC-SVG-20010904/DTD/svg10.dtd">
<svg version="1.0" xmlns="http://www.w3.org/2000/svg"
 width="980.000000pt" height="980.000000pt" viewBox="0 0 980.000000 980.000000"
 preserveAspectRatio="xMidYMid meet">
<metadata>
Created by potrace 1.11, written by Peter Selinger 2001-2013
</metadata>
<g transform="translate(0.000000,980.000000) scale(0.100000,-0.100000)"
fill="#000000" stroke="none">
<path d="M110 5315 l0 -4485 1665 0 1665 0 0 170 0 170 -1495 0 -1495 0 0
4150 0 4150 3650 0 3650 0 0 -1500 0 -1500 165 0 165 0 0 1665 0 1665 -3985 0
-3985 0 0 -4485z"/>
<path d="M1270 7810 l0 -170 335 0 335 0 0 170 0 170 -335 0 -335 0 0 -170z"/>
<path d="M2430 7810 l0 -170 2250 0 2250 0 0 170 0 170 -2250 0 -2250 0 0
-170z"/>
<path d="M6470 5974 c-19 -2 -78 -9 -130 -15 -336 -37 -677 -141 -1000 -305
-688 -347 -1228 -970 -1474 -1699 -110 -324 -156 -612 -156 -967 0 -616 168
-1167 511 -1679 200 -299 505 -602 813 -808 412 -276 888 -445 1379 -492 190
-17 566 -7 742 20 308 49 592 139 870 276 301 149 550 328 791 569 491 492
781 1094 860 1786 20 182 15 587 -11 750 -55 352 -145 638 -293 930 -397 785
-1119 1356 -1977 1560 -222 53 -377 71 -645 75 -135 2 -261 1 -280 -1z m476
-345 c1198 -118 2167 -1019 2369 -2202 40 -238 45 -588 10 -817 -46 -306 -161
-646 -306 -903 -131 -232 -259 -399 -458 -597 -405 -404 -899 -653 -1478 -745
-135 -22 -491 -31 -633 -16 -501 53 -944 226 -1348 527 -153 115 -402 364
-513 514 -227 306 -370 602 -459 955 -62 243 -74 353 -75 640 0 261 7 332 51
547 104 498 350 954 714 1319 216 217 422 368 682 500 318 161 609 244 988
282 83 9 355 6 456 -4z"/>
<path d="M6666 4567 c-25 -14 -48 -39 -63 -66 l-23 -44 0 -809 0 -808 -832 0
c-569 0 -846 -4 -873 -11 -82 -22 -129 -92 -123 -179 5 -69 35 -115 92 -141
39 -18 86 -19 1006 -19 613 0 978 4 1001 10 20 6 45 20 55 31 18 20 19 54 22
973 l2 952 -23 45 c-30 57 -84 89 -152 89 -33 0 -63 -8 -89 -23z"/>
<path d="M1270 5325 l0 -175 335 0 335 0 0 175 0 175 -335 0 -335 0 0 -175z"/>
<path d="M2430 5325 l0 -175 670 0 670 0 0 175 0 175 -670 0 -670 0 0 -175z"/>
<path d="M1270 2830 l0 -170 335 0 335 0 0 170 0 170 -335 0 -335 0 0 -170z"/>
</g>
</svg>
