<?xml version="1.0" encoding="UTF-8" standalone="no"?>
<!-- Created with Inkscape (http://www.inkscape.org/) -->

<svg
   xmlns:dc="http://purl.org/dc/elements/1.1/"
   xmlns:cc="http://creativecommons.org/ns#"
   xmlns:rdf="http://www.w3.org/1999/02/22-rdf-syntax-ns#"
   xmlns:svg="http://www.w3.org/2000/svg"
   xmlns="http://www.w3.org/2000/svg"
   xmlns:sodipodi="http://sodipodi.sourceforge.net/DTD/sodipodi-0.dtd"
   xmlns:inkscape="http://www.inkscape.org/namespaces/inkscape"
   width="10mm"
   height="10mm"
   viewBox="0 0 10 10"
   version="1.1"
   id="svg8"
   inkscape:version="0.92.3 (2405546, 2018-03-11)"
   sodipodi:docname="home.svg">
  <defs
     id="defs2" />
  <sodipodi:namedview
     id="base"
     pagecolor="#ffffff"
     bordercolor="#666666"
     borderopacity="1.0"
     inkscape:pageopacity="0.0"
     inkscape:pageshadow="2"
     inkscape:zoom="2.8"
     inkscape:cx="112.98088"
     inkscape:cy="17.142857"
     inkscape:document-units="mm"
     inkscape:current-layer="layer1"
     showgrid="false"
     inkscape:window-width="1366"
     inkscape:window-height="712"
     inkscape:window-x="0"
     inkscape:window-y="0"
     inkscape:window-maximized="1" />
  <metadata
     id="metadata5">
    <rdf:RDF>
      <cc:Work
         rdf:about="">
        <dc:format>image/svg+xml</dc:format>
        <dc:type
           rdf:resource="http://purl.org/dc/dcmitype/StillImage" />
        <dc:title></dc:title>
      </cc:Work>
    </rdf:RDF>
  </metadata>
  <g
     inkscape:label="Layer 1"
     inkscape:groupmode="layer"
     id="layer1"
     transform="translate(0,-287)">
    <g
       id="g102"
       transform="matrix(0.47150211,0,0,0.48100694,0.28886212,153.82051)"
       style="fill:#ffffff">
      <path
         transform="matrix(0.26458333,0,0,0.26458333,0,277)"
         inkscape:connector-curvature="0"
         id="path91"
         d="M 21.012321,58.288661 C 20.87717,58.15351 20.766592,53.588793 20.766592,48.144845 v -9.898087 l 1.209179,-0.922286 c 0.665049,-0.507258 4.53348,-3.660261 8.596514,-7.006675 4.063034,-3.346414 7.525086,-6.084389 7.693449,-6.084389 0.271548,0 3.105214,2.275273 14.372457,11.540268 l 3.1216,2.566875 -0.08589,10 -0.08588,10 H 48.802306 42.016592 L 41.9175,53.251266 41.818409,48.16198 h -3.551817 -3.551817 l -0.09909,5.089286 -0.09909,5.089285 -6.629272,0.09692 c -3.646099,0.0533 -6.739849,-0.01366 -6.874999,-0.14881 z"
         style="fill:#ffffff;stroke-width:0.35714287" />
      <path
         transform="matrix(0.26458333,0,0,0.26458333,0,277)"
         inkscape:connector-curvature="0"
         id="path93"
         d="m 15.172246,39.387974 c -0.118131,-0.307847 -0.07291,-0.686235 0.100495,-0.840864 0.173404,-0.154629 1.801887,-1.600192 3.618851,-3.212361 l 3.303571,-2.931218 v -4.263633 -4.263633 h 2.5 2.5 v 1.726191 c 0,0.949405 0.105331,1.831521 0.234067,1.960258 0.200997,0.200996 2.504587,-1.569199 4.944505,-3.799608 2.461866,-2.250473 5.924818,-4.593927 6.335666,-4.287481 1.711851,1.276849 7.611792,6.203547 13.807527,11.529864 4.007328,3.444999 7.690635,6.599543 8.185125,7.010099 0.586275,0.486761 0.819928,0.952714 0.671585,1.339285 -0.353964,0.922415 -0.779864,0.740062 -3.370096,-1.442934 C 51.490174,32.4226 39.44593,22.266898 38.900508,21.804266 38.341093,21.329765 37.80605,21.68382 33.08373,25.653413 c -2.860382,2.404444 -5.395645,4.556445 -5.633917,4.782226 -1.75026,1.658505 -11.409807,9.512055 -11.69944,9.512055 -0.199838,0 -0.459995,-0.251874 -0.578127,-0.55972 z"
         style="fill:#ffffff;stroke-width:0.35714287" />
      <path
         transform="matrix(0.26458333,0,0,0.26458333,0,277)"
         inkscape:connector-curvature="0"
         id="path97"
         d="M 32.730878,77.24623 C 32.33802,77.156741 31.132663,76.904355 30.052306,76.685376 23.782503,75.414541 17.763408,72.421751 12.275249,67.846348 5.7592714,62.414066 0.86937994,53.799437 -0.5199126,45.304837 -3.9354574,24.421049 9.7086807,5.120703 30.894079,0.86810413 c 3.683291,-0.73935648 11.061734,-0.73935648 14.745027,0 C 60.776692,3.9067101 72.270942,14.525553 76.53611,29.41198 c 0.72291,2.523123 0.817607,3.629563 0.810018,9.464286 -0.0075,5.77305 -0.110854,6.967832 -0.818615,9.464285 -4.019135,14.176557 -14.287035,24.115261 -29.153778,28.21909 -2.075286,0.572864 -12.911557,1.080964 -14.642857,0.686589 z M 44.873735,73.102123 C 60.587292,69.933612 71.941388,57.625941 73.572728,41.992837 74.202403,35.958658 73.065628,29.885204 70.215256,24.054837 64.804817,12.98791 54.999606,6.0195512 42.46302,4.3319026 38.633513,3.8163822 37.89967,3.8165726 34.070163,4.3340812 31.762128,4.6459819 28.601086,5.3317265 27.045628,5.8579587 15.69468,9.6981319 7.0863729,18.751983 3.8981522,30.203487 c -1.1250415,4.040944 -1.1250415,13.304614 0,17.345557 3.6652735,13.164993 14.6922038,23.199425 28.1184398,25.587593 4.277214,0.7608 8.975489,0.748189 12.857143,-0.0345 z"
         style="fill:#ffffff;stroke-width:0.35714287" />
    </g>
  </g>
</svg>
