<?xml version="1.0" encoding="UTF-8" standalone="no"?>
<!-- Created with Inkscape (http://www.inkscape.org/) -->

<svg
   xmlns:dc="http://purl.org/dc/elements/1.1/"
   xmlns:cc="http://creativecommons.org/ns#"
   xmlns:rdf="http://www.w3.org/1999/02/22-rdf-syntax-ns#"
   xmlns:svg="http://www.w3.org/2000/svg"
   xmlns="http://www.w3.org/2000/svg"
   xmlns:sodipodi="http://sodipodi.sourceforge.net/DTD/sodipodi-0.dtd"
   xmlns:inkscape="http://www.inkscape.org/namespaces/inkscape"
   width="200"
   height="50"
   viewBox="0 0 200 50"
   version="1.1"
   id="SVGRoot"
   inkscape:version="0.92.3 (2405546, 2018-03-11)"
   sodipodi:docname="logo2-combinado.svg"
   inkscape:export-filename="/home/adriano/Pictures/system/png/logo-combinado.png"
   inkscape:export-xdpi="96"
   inkscape:export-ydpi="96">
  <sodipodi:namedview
     id="base"
     pagecolor="#ffffff"
     bordercolor="#666666"
     borderopacity="1.0"
     inkscape:pageopacity="0.0"
     inkscape:pageshadow="2"
     inkscape:zoom="4"
     inkscape:cx="92.112141"
     inkscape:cy="15"
     inkscape:document-units="px"
     inkscape:current-layer="layer1"
     showgrid="false"
     inkscape:window-width="1366"
     inkscape:window-height="712"
     inkscape:window-x="0"
     inkscape:window-y="0"
     inkscape:window-maximized="1"
     inkscape:grid-bbox="true"
     inkscape:measure-start="-11.9531,-6.44531"
     inkscape:measure-end="0,0" />
  <defs
     id="defs592" />
  <metadata
     id="metadata595">
    <rdf:RDF>
      <cc:Work
         rdf:about="">
        <dc:format>image/svg+xml</dc:format>
        <dc:type
           rdf:resource="http://purl.org/dc/dcmitype/StillImage" />
        <dc:title></dc:title>
      </cc:Work>
    </rdf:RDF>
  </metadata>
  <g
     transform="translate(0,20)"
     inkscape:label="Layer 1"
     inkscape:groupmode="layer"
     id="layer1">
    <g
       id="g868"
       style="fill:#008080">
      <text
         transform="scale(0.81430699,1.2280381)"
         id="text4610"
         y="15.188012"
         x="42.010239"
         style="font-style:normal;font-weight:normal;font-size:36.29792404px;line-height:1.25;font-family:sans-serif;letter-spacing:0px;word-spacing:0px;fill:#008080;fill-opacity:1;stroke:none;stroke-width:0.90744805"
         xml:space="preserve"><tspan
           style="font-style:normal;font-variant:normal;font-weight:normal;font-stretch:normal;font-size:36.2979393px;font-family:'Franklin Gothic Medium';-inkscape-font-specification:'Franklin Gothic Medium, Normal';font-variant-ligatures:normal;font-variant-caps:normal;font-variant-numeric:normal;font-feature-settings:normal;text-align:start;writing-mode:lr-tb;text-anchor:start;fill:#008080;stroke-width:0.90744805"
           y="15.188012"
           x="42.010239"
           id="tspan4608"
           sodipodi:role="line">Combinado</tspan></text>
      <path
         inkscape:connector-curvature="0"
         id="path5090"
         d=""
         style="fill:#008080;stroke-width:0.0625" />
      <path
         inkscape:connector-curvature="0"
         id="path5092"
         d=""
         style="fill:#008080;stroke-width:0.0625" />
      <g
         style="fill:#008080"
         transform="translate(3,-0.25)"
         id="g106">
        <path
           style="fill:#008080;stroke-width:0.125"
           d="m 14.754255,14.848059 c -0.03734,-0.09732 -0.04964,-0.33638 -0.02733,-0.53125 L 14.7675,13.9625 17.54875,13.928859 20.33,13.895217 v -3.23868 c 0,-2.777588 0.02797,-3.266645 0.196429,-3.435108 0.235754,-0.235755 0.330889,-0.244111 0.528571,-0.04643 0.110173,0.110173 0.15,1.172222 0.15,4 v 3.85 h -3.191423 c -2.636865,0 -3.203222,-0.03075 -3.259322,-0.17694 z"
           id="path48"
           inkscape:connector-curvature="0" />
        <g
           style="fill:#008080"
           id="g95">
          <path
             inkscape:connector-curvature="0"
             id="path42"
             d="M 0.205,4.2125 V -13.1 H 12.5175 24.83 v 6.375 6.375 H 24.3925 23.955 V -6.1625 -11.975 H 12.58 1.205 V 4.15 20.275 H 5.83 10.455 V 20.9 21.525 H 5.33 0.205 Z"
             style="fill:#008080;stroke-width:0.125" />
          <path
             inkscape:connector-curvature="0"
             id="path44"
             d="m 19.6425,24.646674 c -3.900719,-0.527686 -7.164953,-4.190678 -8.004028,-8.981798 -0.234853,-1.341012 -0.234853,-3.56374 0,-4.904752 1.032876,-5.897724 5.613876,-9.858946 10.33174,-8.933927 3.478217,0.681965 6.319322,3.691482 7.444987,7.886303 0.305191,1.137302 0.335434,1.452856 0.335434,3.5 0,2.033321 -0.03146,2.366836 -0.326715,3.463226 -1.414875,5.254012 -5.465402,8.554814 -9.781418,7.970948 z m 2.723032,-1.318381 C 24.967754,22.65399 27.224558,20.336599 28.272296,17.262956 30.608711,10.408858 26.561079,2.833802 20.58,2.866991 17.586558,2.883601 15.039692,4.732168 13.461208,8.033953 12.611514,9.811296 12.414626,10.766461 12.406637,13.15 c -0.0059,1.771921 0.03345,2.212193 0.279603,3.125 0.969517,3.59532 3.328479,6.290116 6.178074,7.05762 0.883059,0.237841 2.574729,0.23575 3.501218,-0.0043 z"
             style="fill:#008080;stroke-width:0.125" />
          <path
             inkscape:connector-curvature="0"
             id="path50"
             d="M 7.455,-5.5375 V -6.1 h 6.875 6.875 v 0.5625 0.5625 H 14.33 7.455 Z"
             style="fill:#008080;stroke-width:0.125" />
          <path
             inkscape:connector-curvature="0"
             id="path52"
             d="M 3.83,-5.5375 V -6.1 h 1 1 v 0.5625 0.5625 h -1 -1 z"
             style="fill:#008080;stroke-width:0.125" />
          <path
             inkscape:connector-curvature="0"
             id="path54"
             d="M 3.83,4.15 V 3.525 h 1 1 V 4.15 4.775 h -1 -1 z"
             style="fill:#008080;stroke-width:0.125" />
          <path
             inkscape:connector-curvature="0"
             id="path56"
             d="M 7.455,4.15 V 3.525 h 2 2 V 4.15 4.775 h -2 -2 z"
             style="fill:#008080;stroke-width:0.125" />
          <path
             inkscape:connector-curvature="0"
             id="path58"
             d="M 3.83,13.8375 V 13.275 h 1 1 V 13.8375 14.4 h -1 -1 z"
             style="fill:#008080;stroke-width:0.125" />
        </g>
      </g>
    </g>
  </g>
</svg>
